<svg width="2682" height="3451" viewBox="0 0 2682 3451" fill="none" xmlns="http://www.w3.org/2000/svg">
<path fill-rule="evenodd" clip-rule="evenodd" d="M1373.98 2230.78C1915.79 2230.78 2355.01 1791.55 2355.01 1249.75C2355.01 707.939 1915.79 268.717 1373.98 268.717C832.17 268.717 392.948 707.939 392.948 1249.75C392.948 1791.55 832.17 2230.78 1373.98 2230.78Z" fill="#268AFF" fill-opacity="0.3"/>
<path fill-rule="evenodd" clip-rule="evenodd" d="M1971.13 3450.66C2067.71 3450.66 2146.01 3372.37 2146.01 3275.79C2146.01 3179.2 2067.71 3100.91 1971.13 3100.91C1874.54 3100.91 1796.25 3179.2 1796.25 3275.79C1796.25 3372.37 1874.54 3450.66 1971.13 3450.66Z" fill="#213C7F"/>
<path fill-rule="evenodd" clip-rule="evenodd" d="M1211.89 0L1420.9 209.002L1211.89 418.004L1002.89 209.002L1211.89 0Z" fill="#213C7F"/>
<path fill-rule="evenodd" clip-rule="evenodd" d="M631.807 2943.09L734.176 3045.46L631.807 3147.83L529.439 3045.46L631.807 2943.09Z" fill="#268AFF"/>
<path fill-rule="evenodd" clip-rule="evenodd" d="M2111.88 268.717L2163.07 319.901L2111.88 371.085L2060.7 319.901L2111.88 268.717Z" fill="#213C7F"/>
<g filter="url(#filter0_d)">
<rect x="201.007" y="506.704" width="1070.6" height="2200.92" rx="155.472" transform="rotate(-2 201.007 506.704)" fill="#F2F2F2"/>
</g>
<path fill-rule="evenodd" clip-rule="evenodd" d="M353.119 548.339C295.911 550.337 251.154 598.333 253.151 655.541L319.352 2551.26C321.349 2608.47 369.345 2653.23 426.554 2651.23L1192.46 2624.49C1249.67 2622.49 1294.42 2574.49 1292.43 2517.28L1226.23 621.56C1224.23 564.352 1176.23 519.595 1119.02 521.593L353.119 548.339ZM999.623 525.762L475.46 544.067L476.063 561.335C477.195 593.753 504.393 619.116 536.811 617.983L943.578 603.779C975.996 602.647 1001.36 575.449 1000.23 543.031L999.623 525.762Z" fill="#268AFF"/>
<path fill-rule="evenodd" clip-rule="evenodd" d="M1027.51 988.961C1055.73 1005.94 1083.45 1014.15 1096.47 1010.8C1129.1 1002.4 1132.1 883.209 1106.85 836.221C1081.6 789.234 951.8 768.753 945.257 861.851C942.986 894.162 956.575 922.997 976.652 946.527L940.651 1114.06H1045.22L1027.51 988.961Z" fill="#D4A181"/>
<path fill-rule="evenodd" clip-rule="evenodd" d="M1065.54 785.045C1051.25 780.695 1030.51 779.22 1021.79 780.218C1026.75 768.344 1028.72 755.115 1027.11 742.235C1025.55 729.719 1019.95 719.062 1014.77 707.895C1012.38 702.748 1009.68 697.628 1005.64 693.691C1001.53 689.68 996.329 687.033 990.873 685.769C985.29 684.477 979.452 684.584 973.861 685.758C971.387 686.277 969.167 687.406 966.741 688.033C964.257 688.677 963.052 687.124 961.249 685.564C956.903 681.805 950.532 679.949 945.035 679.285C938.867 678.54 932.466 679.469 926.584 681.493C920.858 683.464 915.357 686.664 911.217 691.327C909.374 693.402 907.701 695.764 906.613 698.372C906.167 699.443 906.094 700.077 905.024 700.469C904.035 700.832 902.878 700.842 901.857 701.188C891.984 704.526 883.543 712.142 878.947 721.921C876.265 727.626 874.995 737.67 875.343 748.928C875.691 760.186 885.872 789.561 895.395 800.276C903.895 809.84 916.389 816.151 928.447 818.914C920.444 828.047 915.116 839.461 911.177 851.068C906.897 863.677 904.249 876.778 903.271 890.127C902.342 902.809 902.256 916.222 905.234 928.634C908.02 940.241 913.977 949.763 923.923 955.804C928.479 958.571 933.381 960.65 938.311 962.55C943.169 964.422 948.042 966.242 953.132 967.293C962.764 969.281 973.863 968.94 981.282 961.285C983.956 958.525 986.897 955.058 988.848 951.687C989.55 950.474 989.973 949.682 989.12 948.497C988.099 947.077 986.448 945.99 985.136 944.88C977.657 938.55 973.027 930.099 971.86 920.056C970.676 909.866 973.418 896.714 983.34 892.267C995.589 886.777 1009.08 893.078 1019.96 898.952C1024.59 882.648 1034.09 867.968 1048.99 860.49C1065.46 852.216 1084.37 851.248 1101.31 844.149C1105.72 842.299 1110.21 840.199 1113.46 836.43C1114.82 834.855 1116.41 832.811 1116.95 830.728C1117.67 827.991 1115.9 825.697 1114.53 823.563C1107.29 812.25 1079.83 789.396 1065.54 785.045Z" fill="#191847"/>
<path fill-rule="evenodd" clip-rule="evenodd" d="M871.822 1456.55L881.16 2032.05L886.907 2455.92L968.106 2477.68L1098.63 1517.33L871.822 1456.55Z" fill="#191847"/>
<path fill-rule="evenodd" clip-rule="evenodd" d="M831.014 1445.62C753.653 1720.22 701.348 1867.28 690.934 1891.32C680.52 1915.37 581.815 2059.61 394.819 2324.07L478.936 2346.6C692.324 2102.02 812.003 1963.39 837.973 1930.72C863.943 1898.06 953.789 1761.05 1099.09 1517.45L831.014 1445.62Z" fill="#2F3676"/>
<path fill-rule="evenodd" clip-rule="evenodd" d="M367.034 2397.69L394.887 2310.57L483.271 2334.25C534.312 2395.22 628.27 2449.67 628.27 2449.67L623.766 2466.48L463.835 2423.62L411.373 2400.56L409.121 2408.96L367.034 2397.69Z" fill="#191847"/>
<path fill-rule="evenodd" clip-rule="evenodd" d="M855.246 2528.5L883.1 2441.39L971.483 2465.07C1022.52 2526.04 1116.48 2580.49 1116.48 2580.49L1111.98 2597.29L952.047 2554.44L899.586 2531.38L897.334 2539.78L855.246 2528.5Z" fill="#191847"/>
<path fill-rule="evenodd" clip-rule="evenodd" d="M521.43 1605.36C539.695 1583.03 655.43 1338.7 655.43 1338.7L731.334 1356.57C731.334 1356.57 584.089 1613.89 573.794 1628.58C560.422 1647.67 567.806 1681.59 572.812 1704.59C573.587 1708.15 574.305 1711.44 574.88 1714.38C559.879 1717.32 555.044 1708.47 549.947 1699.14C544.189 1688.61 538.098 1677.46 516.644 1681.99C508.356 1683.74 500.323 1686.21 492.476 1688.63C465.367 1696.99 440.464 1704.67 414.846 1679.38C410.784 1675.37 408.133 1663.19 422.655 1657.5C458.835 1643.32 512.501 1616.27 521.43 1605.36ZM1365.88 1560.97L1244.56 1438.6L1202.34 1508.69L1329.36 1586.49C1360.66 1637.66 1379.18 1659.86 1384.92 1653.09C1389.76 1647.37 1387.7 1640.98 1385.8 1635.09C1384.32 1630.51 1382.94 1626.23 1384.99 1622.81C1389.69 1615.01 1415.38 1619.98 1439.55 1625.73C1463.73 1631.48 1458.32 1619.48 1453.27 1613.18C1430.65 1594.3 1401.53 1576.9 1365.88 1560.97Z" fill="#B28B67"/>
<path fill-rule="evenodd" clip-rule="evenodd" d="M1004.13 1053.9L1053.15 1042.34C1103.67 1209.17 1186.4 1373.54 1335.9 1519.35L1290.08 1584.45C1155.84 1488.84 1027.54 1412.47 984.105 1282.82C969.528 1239.31 998.259 1103.89 1004.13 1053.9Z" fill="#C5CFD6"/>
<path fill-rule="evenodd" clip-rule="evenodd" d="M800.827 1493.19C800.827 1493.19 1003.62 1532.77 1123.06 1521.38C1132.92 1520.44 1135.87 1504.35 1132.34 1492.94C1077.23 1315.29 1042.25 1161.43 1052.67 1042.3C1032.52 1050.32 984.874 1039.3 984.874 1039.3C887.695 1154.51 835.639 1291.89 800.827 1493.19Z" fill="#323337"/>
<path fill-rule="evenodd" clip-rule="evenodd" d="M961 1026.85C963.364 1025.54 964.609 1024.9 964.609 1024.9L964.285 1027.13L1000.31 1030.29C1001.19 1041.07 1000.39 1080.7 999.235 1138.48C995.021 1348.45 985.997 1798.16 1035.07 1974.85L593.176 1936.19C619.518 1742.49 711.7 1516.16 803.39 1325.16C743.71 1374.89 671.585 1460.71 606.444 1608.38L525.528 1579.92C641.633 1224.39 905.152 1058.86 956.021 1029.65C956.583 1028.62 957.142 1027.58 957.698 1026.56L961 1026.85Z" fill="#DDE3E9"/>
<path fill-rule="evenodd" clip-rule="evenodd" d="M2143.46 1507.93C2111.29 1510.22 2083.46 1505.07 2073.6 1496.36C2048.87 1474.52 2099.31 1369.06 2142.25 1339.23C2185.19 1309.41 2307.52 1349.2 2271.79 1433.44C2259.38 1462.68 2234.7 1481.83 2206.71 1493.46L2163.54 1655.82L2072.33 1609.34L2143.46 1507.93Z" fill="#B28B67"/>
<path fill-rule="evenodd" clip-rule="evenodd" d="M2130.84 1261.74C2136.11 1256.06 2144.09 1252.97 2151.79 1254.77C2153.66 1255.2 2155.46 1255.91 2157.13 1256.85C2157.73 1257.19 2157.81 1257.45 2158.32 1257.17C2158.69 1256.96 2159.09 1256.19 2159.37 1255.86C2160.23 1254.84 2161.16 1253.86 2162.15 1252.96C2165.52 1249.88 2169.65 1247.74 2174 1246.37C2182.13 1243.83 2191.33 1243.9 2199.29 1247.12C2203.65 1248.88 2207.44 1251.67 2210.7 1255.03C2212.38 1256.77 2213.91 1258.66 2215.35 1260.61C2215.78 1261.19 2216.94 1263.58 2217.57 1263.78C2218.26 1264.01 2220.37 1263.07 2221.1 1262.93C2230.09 1261.27 2239.07 1263.39 2247.09 1267.55C2256.15 1272.25 2264.67 1277.16 2269.43 1286.57C2270.44 1288.56 2271.31 1290.62 2272.08 1292.72C2272.48 1293.82 2272.85 1294.94 2273.16 1296.07C2273.35 1296.75 2273.53 1297.43 2273.68 1298.13C2273.94 1299.3 2273.69 1299.52 2274.94 1299.42C2279.71 1299.07 2284.47 1300.18 2288.46 1302.88C2290.83 1304.48 2292.91 1306.49 2294.73 1308.68C2295.36 1309.42 2296.51 1311.72 2297.35 1312.16C2298.18 1312.61 2300.64 1312.27 2301.67 1312.39C2307.23 1313.05 2312.49 1315.2 2317 1318.5C2321.65 1321.91 2325.6 1326.47 2328.48 1331.46C2329.86 1333.86 2330.9 1336.27 2331.33 1339.01C2331.52 1340.19 2331.62 1341.39 2331.92 1342.55C2332.1 1343.23 2332.67 1344.13 2332.59 1344.84C2332.64 1344.42 2339.44 1345.12 2340.05 1345.25C2343.28 1345.96 2346.11 1347.6 2348.44 1349.94C2352.82 1354.35 2355.36 1360.54 2357.05 1366.41C2357.92 1369.43 2358.44 1372.54 2358.63 1375.67C2358.73 1377.17 2358.74 1378.67 2358.69 1380.17C2358.67 1380.9 2358.48 1381.73 2358.57 1382.44C2358.69 1383.36 2359 1383.53 2359.7 1384.26C2363.23 1387.97 2365.86 1392.52 2367.09 1397.49C2368.33 1402.52 2368.1 1407.81 2366.62 1412.76C2366.53 1413.05 2366 1414.17 2366.08 1414.39C2366.19 1414.7 2367.11 1415.05 2367.41 1415.26C2368.48 1415.97 2369.5 1416.74 2370.48 1417.57C2372.28 1419.1 2373.91 1420.83 2375.32 1422.72C2380.82 1430.1 2382.6 1439.6 2381.27 1448.58C2379.86 1458.01 2375.11 1467.21 2367.86 1473.46C2366.69 1474.47 2365.44 1475.4 2364.11 1476.2C2363.3 1476.69 2363.16 1476.62 2363.06 1477.52C2362.96 1478.52 2363.13 1479.64 2363.1 1480.66C2362.99 1483.97 2362.42 1487.26 2361.5 1490.44C2359.98 1495.66 2357.88 1500.89 2354.54 1505.23C2352.99 1507.24 2351.16 1509.05 2349.04 1510.47C2347.96 1511.19 2346.82 1511.81 2345.62 1512.32C2345 1512.58 2344.36 1512.81 2343.72 1513.02C2343.35 1513.13 2342.92 1513.18 2342.57 1513.34C2341.73 1513.74 2341.9 1513.14 2341.67 1514.24C2341.35 1515.77 2341.51 1517.52 2341.35 1519.09C2341.19 1520.71 2340.97 1522.32 2340.7 1523.92C2340.16 1527.17 2339.45 1530.4 2338.44 1533.53C2336.5 1539.55 2333.33 1545.39 2328.1 1549.16C2325.86 1550.77 2323.27 1551.86 2320.55 1552.35C2319.22 1552.59 2317.87 1552.69 2316.52 1552.65C2315.82 1552.63 2315.05 1552.38 2314.52 1552.8C2313.95 1553.24 2313.77 1554.6 2313.53 1555.3C2311.46 1561.36 2308.84 1567.51 2304.33 1572.2C2300.18 1576.51 2294.47 1579.28 2288.53 1580.01C2276.99 1581.42 2265.58 1575.2 2258.92 1565.97C2257.18 1563.56 2255.75 1560.94 2254.68 1558.17C2246.26 1562.35 2236.08 1556.9 2229.75 1551.26C2221.87 1544.23 2217.79 1534.18 2217.82 1523.72C2208.5 1527.8 2197.58 1519.37 2197.46 1509.74C2197.43 1507.38 2197.9 1505.04 2198.67 1502.82C2199.07 1501.65 2199.73 1500.6 2200.17 1499.46C2200.73 1498.01 2200.49 1496.2 2200.64 1494.6C2200.93 1491.48 2201.66 1488.47 2203.06 1485.66C2203.79 1484.19 2204.7 1482.86 2205.57 1481.48C2206.36 1480.23 2206.62 1478.83 2207.07 1477.44C2209.21 1479.01 2212.38 1479.83 2214.92 1480.28C2217.42 1480.71 2220.33 1479.99 2222.67 1479.17C2228.09 1477.27 2232.73 1473.5 2236.68 1469.42C2245.33 1460.45 2250.5 1447.02 2242.78 1435.75C2239.19 1430.5 2224.27 1422.91 2217.66 1421.23C2210.71 1419.46 2196.63 1429.62 2195.63 1430.73C2195 1431.42 2194.61 1432.47 2193.6 1432.63C2191.39 1432.98 2189.76 1429.58 2189.08 1427.97C2187.91 1425.19 2187.61 1422.14 2187.53 1419.16C2187.36 1412.65 2187.91 1406.06 2189.18 1399.68C2190.15 1394.76 2191.63 1389.94 2192.18 1384.94C2192.72 1379.97 2192.13 1374.97 2189.46 1370.64C2186.55 1365.92 2182.41 1362.11 2178.61 1358.14C2174.83 1354.2 2171.32 1349.95 2169.5 1344.75C2169.1 1343.6 2168.74 1342.42 2168.56 1341.23C2168.42 1340.28 2168.6 1338.7 2168.07 1337.88C2167.24 1336.59 2164.62 1337.5 2163.27 1337.62C2156.63 1338.25 2150.18 1340.57 2144.33 1343.7C2138.51 1346.82 2133.39 1350.06 2128.4 1354.31C2124.7 1357.47 2121.06 1362.06 2116.47 1363.85C2114.42 1364.65 2104.27 1360.6 2101.78 1357.72C2099.29 1354.84 2097.47 1349.73 2097.47 1347.12C2097.48 1344.44 2098.41 1341.97 2100.06 1339.87C2101.03 1338.64 2102.23 1337.64 2103.22 1336.45C2104.05 1335.45 2104.83 1334.5 2105.91 1333.74C2107.95 1332.31 2110.45 1331.81 2112.9 1332.31C2111.72 1329.11 2111.12 1325.7 2111.24 1322.29C2111.37 1318.74 2112.02 1314.68 2113.3 1311.38C2114.34 1308.69 2116.09 1306.25 2118.61 1304.77C2121.25 1303.21 2124.61 1303.03 2127.59 1302.74C2125.53 1298.3 2124.25 1293.54 2123.68 1288.69C2122.56 1279.26 2124.18 1268.91 2130.84 1261.74Z" fill="#191847"/>
<path fill-rule="evenodd" clip-rule="evenodd" d="M2082.05 1970.59L1872.7 2500.46L1732.29 2948.42H1676.85L1891.51 1970.59L2082.05 1970.59Z" fill="#997659"/>
<path fill-rule="evenodd" clip-rule="evenodd" d="M2124.21 1970.59C2126.44 2156.79 2158.95 2407.48 2164.15 2419.08C2169.34 2430.69 2522.77 2714.28 2522.77 2714.28L2484.58 2755.15C2484.58 2755.15 2067.57 2512 2048.27 2479.57C2028.97 2447.14 1966.15 2148.72 1915.71 1970.59H2124.21Z" fill="#B28B67"/>
<path fill-rule="evenodd" clip-rule="evenodd" d="M2516.63 2706.63C2518.02 2701.84 2523.07 2698.98 2527.77 2700.7C2536.32 2703.82 2548.84 2708.88 2554.38 2713.54C2563.22 2720.95 2577.7 2738.13 2577.7 2738.13C2569.1 2748.38 2423.07 2922.42 2423.07 2922.42C2423.07 2922.42 2393.29 2909.67 2404.38 2892.61C2415.48 2875.54 2422.54 2864.02 2422.54 2864.02L2456.23 2746.32C2456.89 2744.01 2459.33 2742.71 2461.62 2743.43L2479.6 2749.13C2479.6 2749.13 2498.3 2740.42 2505.82 2731.46C2510.4 2726 2514.28 2714.67 2516.63 2706.63Z" fill="#E4E4E4"/>
<path fill-rule="evenodd" clip-rule="evenodd" d="M1743.17 2922.97C1747.75 2920.96 1753.18 2923 1754.88 2927.69C1757.99 2936.26 1762.15 2949.1 1762.15 2956.33C1762.15 2967.87 1758.31 2990.01 1758.31 2990.01C1744.93 2990.01 1517.74 2990.01 1517.74 2990.01C1517.74 2990.01 1508.36 2959 1528.56 2956.53C1548.77 2954.06 1562.13 2952.07 1562.13 2952.07L1673.95 2902.22C1676.14 2901.24 1678.71 2902.27 1679.63 2904.49L1686.81 2921.93C1686.81 2921.93 1705.52 2930.65 1717.21 2930.65C1724.33 2930.65 1735.51 2926.34 1743.17 2922.97Z" fill="#E4E4E4"/>
<path fill-rule="evenodd" clip-rule="evenodd" d="M1941.3 2902.28L1677.68 2873.67L1873.05 1970.59H2109.17L1941.3 2902.28Z" fill="#69A1AC"/>
<path fill-rule="evenodd" clip-rule="evenodd" d="M2468.24 2648.35L2295.32 2853.03C2295.32 2853.03 2022.13 2554.65 1976.77 2463.64C1931.42 2372.64 1895.24 1970.59 1895.24 1970.59H2161.06C2161.06 1970.59 2180.82 2324.3 2187.7 2340.75C2194.59 2357.21 2468.24 2648.35 2468.24 2648.35Z" fill="#89C5CC"/>
<path fill-rule="evenodd" clip-rule="evenodd" d="M1648.38 1698.21L1781.92 1801.46L1718.74 1850.86L1627.9 1736.75C1574.37 1712.46 1550.56 1697.12 1556.47 1690.73C1561.45 1685.35 1567.92 1686.58 1573.87 1687.73C1578.51 1688.61 1582.84 1689.44 1585.92 1687.04C1592.95 1681.54 1585.06 1657.17 1576.58 1634.37C1568.1 1611.57 1580.42 1615.39 1587.16 1619.54C1608.23 1639.26 1628.63 1665.48 1648.38 1698.21ZM2294.67 1966.44L2383.67 1970.76C2403.39 2136.69 2416.97 2228.32 2424.4 2245.63C2429.86 2258.32 2473.04 2298.28 2503.24 2321.4C2515.37 2330.68 2509.59 2341.44 2504.68 2344.12C2473.75 2361.03 2452.4 2347.08 2429.16 2331.89C2422.43 2327.49 2415.54 2322.99 2408.22 2319.1C2389.26 2309.05 2380.52 2317.91 2372.26 2326.28C2364.94 2333.69 2358.01 2340.72 2344.69 2333.9C2346.02 2331.29 2347.59 2328.38 2349.28 2325.24C2360.2 2304.92 2376.3 2274.96 2368.87 2253.37C2365.06 2242.29 2340.33 2146.65 2294.67 1966.44Z" fill="#B28B67"/>
<path fill-rule="evenodd" clip-rule="evenodd" d="M2147.47 1574.84L2113.22 1559.78C2016.42 1615.96 1939.31 1789.69 1881.37 1800.78C1826.59 1811.27 1762.45 1771.91 1687.1 1721.57L1647.64 1771.88C1702.55 1871.97 1845.6 1980.64 1920.32 1957.6C2039.77 1920.75 2119.6 1702.68 2147.47 1574.84Z" fill="#DB2721"/>
<path fill-rule="evenodd" clip-rule="evenodd" d="M2191.35 2063.47C2191.35 2063.47 1976.11 2009.81 1874.69 1984.52C1860.22 1980.92 1868.16 1960.7 1872.88 1950.68C1927.36 1835.02 2054.3 1727.35 2097.48 1554.15L2192.39 1562.6C2237.64 1702.94 2226.47 1859.05 2191.35 2063.47Z" fill="#DDE3E9"/>
<path fill-rule="evenodd" clip-rule="evenodd" d="M2181.8 1559.96L2198.28 1564.07C2371.68 1741.39 2446.69 1967.97 2423.34 2243.78L2353.72 2240.23C2322.53 2178.05 2289.17 2080.69 2253.65 1948.15C2255.96 2023.23 2252.49 2098.78 2240.04 2167.93L1955 2096.86C1934.59 1943.65 2162.12 1555.05 2162.12 1555.05L2181.8 1559.96Z" fill="#FF4133"/>
<defs>
<filter id="filter0_d" x="13.3321" y="418.157" width="1436.8" height="2526.98" filterUnits="userSpaceOnUse" color-interpolation-filters="sRGB">
<feFlood flood-opacity="0" result="BackgroundImageFix"/>
<feColorMatrix in="SourceAlpha" type="matrix" values="0 0 0 0 0 0 0 0 0 0 0 0 0 0 0 0 0 0 127 0"/>
<feOffset dx="-42.6535" dy="93.8376"/>
<feGaussianBlur stdDeviation="72.5109"/>
<feColorMatrix type="matrix" values="0 0 0 0 0 0 0 0 0 0 0 0 0 0 0 0 0 0 0.1 0"/>
<feBlend mode="normal" in2="BackgroundImageFix" result="effect1_dropShadow"/>
<feBlend mode="normal" in="SourceGraphic" in2="effect1_dropShadow" result="shape"/>
</filter>
</defs>
</svg>
